<svg xmlns="http://www.w3.org/2000/svg" viewBox="0 0 640 360" width="640" height="360" font-family="Helvetica, Arial, sans-serif">
<defs>
<marker id="ar" viewBox="0 0 10 10" refX="8" refY="5" markerWidth="7" markerHeight="7" orient="auto-start-reverse"><path d="M0,0 L10,5 L0,10 z" fill="#111"/></marker>
<marker id="aw" viewBox="0 0 10 10" refX="8" refY="5" markerWidth="7" markerHeight="7" orient="auto-start-reverse"><path d="M0,0 L10,5 L0,10 z" fill="#fff"/></marker>
<pattern id="h" width="6" height="6" patternUnits="userSpaceOnUse" patternTransform="rotate(45)"><rect width="6" height="6" fill="#c8c8c8"/><line x1="0" y1="0" x2="0" y2="6" stroke="#333" stroke-width="2"/></pattern>
</defs>
<rect x="0" y="0" width="640" height="360" fill="#fafafa"/>
<rect x="0" y="0" width="640" height="26" fill="#111"/><text x="10" y="18" font-size="13" font-weight="bold" fill="#fff">1 · WIDE · HIGH ANGLE · DESIGN VIEW (title / intro)</text>
<polygon points="40,345 600,345 535,130 105,130" fill="#555"/>
<ellipse cx="130" cy="300" rx="30" ry="11" fill="#ececec" stroke="#111" stroke-width="2"/><ellipse cx="205" cy="280" rx="30" ry="11" fill="#ececec" stroke="#111" stroke-width="2"/><ellipse cx="280" cy="262" rx="30" ry="11" fill="#ececec" stroke="#111" stroke-width="2"/><ellipse cx="355" cy="244" rx="30" ry="11" fill="#ececec" stroke="#111" stroke-width="2"/><ellipse cx="425" cy="226" rx="30" ry="11" fill="#ececec" stroke="#111" stroke-width="2"/><ellipse cx="490" cy="208" rx="30" ry="11" fill="#ececec" stroke="#111" stroke-width="2"/><path d="M240,278 q12,-8 26,-2 q8,8 -4,12 q-14,4 -22,-10 Z" fill="url(#h)" stroke="#111"/>
<path d="M385,242 q14,-8 26,-1 q6,8 -6,11 q-14,3 -20,-10 Z" fill="url(#h)" stroke="#111"/>
<text x="232" y="300" font-size="10" fill="#fff" text-anchor="start" font-weight="normal">sauce</text>
<text x="380" y="264" font-size="10" fill="#fff" text-anchor="start" font-weight="normal">sauce</text>
<ellipse cx="280" cy="262" rx="18" ry="6" fill="#222" opacity="0.7"/><ellipse cx="425" cy="226" rx="14" ry="5" fill="#222" opacity="0.7"/>
<rect x="276" y="26" width="8" height="138" fill="#9a9a9a" stroke="#111" stroke-width="1.5"/><path d="M267.0,164 L293.0,164 L293.0,170 L267.0,170 Z" fill="#9a9a9a" stroke="#111" stroke-width="1.5"/><path d="M266.5,170 L271.5,170 L269.0,200 Z" fill="#9a9a9a" stroke="#111" stroke-width="1.2"/><path d="M273.8333333333333,170 L278.8333333333333,170 L276.3333333333333,200 Z" fill="#9a9a9a" stroke="#111" stroke-width="1.2"/><path d="M281.1666666666667,170 L286.1666666666667,170 L283.6666666666667,200 Z" fill="#9a9a9a" stroke="#111" stroke-width="1.2"/><path d="M288.5,170 L293.5,170 L291.0,200 Z" fill="#9a9a9a" stroke="#111" stroke-width="1.2"/>
<rect x="421" y="26" width="8" height="108" fill="#9a9a9a" stroke="#111" stroke-width="1.5"/><path d="M413.0,134 L437.0,134 L437.0,140 L413.0,140 Z" fill="#9a9a9a" stroke="#111" stroke-width="1.5"/><path d="M412.5,140 L417.5,140 L415.0,170 Z" fill="#9a9a9a" stroke="#111" stroke-width="1.2"/><path d="M419.1666666666667,140 L424.1666666666667,140 L421.6666666666667,170 Z" fill="#9a9a9a" stroke="#111" stroke-width="1.2"/><path d="M425.8333333333333,140 L430.8333333333333,140 L428.3333333333333,170 Z" fill="#9a9a9a" stroke="#111" stroke-width="1.2"/><path d="M432.5,140 L437.5,140 L435.0,170 Z" fill="#9a9a9a" stroke="#111" stroke-width="1.2"/>
<rect x="486" y="26" width="8" height="88" fill="#9a9a9a" stroke="#111" stroke-width="1.5"/><path d="M479.0,114 L501.0,114 L501.0,120 L479.0,120 Z" fill="#9a9a9a" stroke="#111" stroke-width="1.5"/><path d="M478.5,120 L483.5,120 L481.0,150 Z" fill="#9a9a9a" stroke="#111" stroke-width="1.2"/><path d="M484.5,120 L489.5,120 L487.0,150 Z" fill="#9a9a9a" stroke="#111" stroke-width="1.2"/><path d="M490.5,120 L495.5,120 L493.0,150 Z" fill="#9a9a9a" stroke="#111" stroke-width="1.2"/><path d="M496.5,120 L501.5,120 L499.0,150 Z" fill="#9a9a9a" stroke="#111" stroke-width="1.2"/>
<rect x="121" y="284" width="18" height="15" rx="3" fill="#fff" stroke="#111" stroke-width="2.5"/><circle cx="126.76" cy="289.7" r="2" fill="#111"/><circle cx="133.24" cy="289.7" r="2" fill="#111"/><path d="M128.2,293.6 q1.8,1.05 3.6,0" fill="none" stroke="#111" stroke-width="2"/>
<path d="M520,200 a26,30 0 0 1 52,0 Z" fill="none" stroke="#111" stroke-width="2.5"/><line x1="514" y1="200" x2="578" y2="200" stroke="#111" stroke-width="2.5"/><circle cx="546" cy="168" r="4" fill="#fff" stroke="#111" stroke-width="2"/>
<text x="540" y="222" font-size="11" fill="#fff" text-anchor="middle" font-weight="bold">dome</text>
<text x="130" y="330" font-size="11" fill="#fff" text-anchor="middle" font-weight="bold">jelly</text>
<text x="20" y="52" font-size="18" fill="#111" text-anchor="start" font-weight="bold">JELLY HOP:</text>
<text x="20" y="74" font-size="18" fill="#111" text-anchor="start" font-weight="bold">FORK FROM ABOVE</text>
<text x="20" y="96" font-size="12" fill="#111" text-anchor="start" font-weight="normal">any key skips the intro</text>
<path d="M560,330 L170,330" stroke="#fff" stroke-width="2.5" stroke-dasharray="7 5" marker-end="url(#aw)"/>
<text x="560" y="322" font-size="10" fill="#fff" text-anchor="end" font-weight="normal">CAMERA: pan dome → jelly (slice: eye-level side-view pan, skippable)</text>
<rect x="1.5" y="1.5" width="637" height="357" fill="none" stroke="#111" stroke-width="3"/>
</svg>
